<?xml version="1.0" standalone="no"?><!DOCTYPE svg PUBLIC "-//W3C//DTD SVG 1.1//EN" "http://www.w3.org/Graphics/SVG/1.1/DTD/svg11.dtd"><svg class="icon" width="32px" height="32.00px" viewBox="0 0 1024 1024" version="1.1" xmlns="http://www.w3.org/2000/svg"><path d="M338.176 468.8384h350.5152c20.3264-7.6288 27.5968-34.5088 9.4208-50.2784l-163.5328-141.7728c-12.032-10.3936-30.3616-10.3936-42.3936 0L328.704 418.56c-18.1248 15.7696-10.9056 42.6496 9.472 50.2784z" fill="#FBF598" /><path d="M755.0976 345.4464c-6.144 0-12.288-2.2016-17.2032-6.656l-35.5328-32.256c-10.4448-9.5232-11.264-25.7024-1.7408-36.1472a25.58464 25.58464 0 0 1 36.1472-1.7408l35.5328 32.256c10.4448 9.5232 11.264 25.7024 1.7408 36.1472a25.3952 25.3952 0 0 1-18.944 8.3968z" fill="#474747" /><path d="M740.3008 905.9328H286.5664c-47.9744 0-87.04-39.0656-87.04-87.04V561.152h-4.864c-36.2496 0-68.1472-21.8624-81.2032-55.7056-13.056-33.8432-4.1472-71.424 22.6816-95.7952l318.7712-289.4336a86.79936 86.79936 0 0 1 117.0432 0l95.1808 86.4256c10.4448 9.5232 11.264 25.7024 1.7408 36.1472s-25.7024 11.264-36.1472 1.7408l-95.1808-86.4256a35.65056 35.65056 0 0 0-48.1792 0L170.5472 447.5392c-16.896 15.3088-11.4176 34.048-9.3696 39.424s10.6496 22.9376 33.4336 22.9376h30.464c14.1312 0 25.6 11.4688 25.6 25.6v283.3408c0 19.7632 16.0768 35.84 35.84 35.84h453.7344c19.7632 0 35.84-16.0768 35.84-35.84v-283.3408c0-14.1312 11.4688-25.6 25.6-25.6h30.464c22.8352 0 31.3856-17.5616 33.4336-22.9376 2.0992-5.376 7.5264-24.1152-9.3696-39.424l-54.272-49.2544c-10.4448-9.5232-11.264-25.7024-1.7408-36.1472s25.7024-11.264 36.1472-1.7408l54.272 49.2544c26.8288 24.3712 35.7376 61.952 22.6816 95.7952-13.056 33.8432-44.9536 55.7056-81.2032 55.7056h-4.864v257.7408c0.1024 47.9744-38.9632 87.04-86.9376 87.04z" fill="#474747" /><path d="M598.7328 790.528h-96.768a32.3584 32.3584 0 0 1-32.3584-32.3584v-96.7168a32.3584 32.3584 0 0 1 32.3584-32.3584h96.7168a32.3584 32.3584 0 0 1 32.3584 32.3584v96.7168a32.28672 32.28672 0 0 1-32.3072 32.3584z" fill="#FBF598" /><path d="M598.7328 790.528H526.848a32.3584 32.3584 0 0 1-32.3584-32.3584v-71.8848a32.3584 32.3584 0 0 1 32.3584-32.3584h71.8848a32.3584 32.3584 0 0 1 32.3584 32.3584v71.8848a32.3584 32.3584 0 0 1-32.3584 32.3584z" fill="#EAF5C5" /><path d="M598.7328 790.528h-37.2736a32.3584 32.3584 0 0 1-32.3584-32.3584v-37.2736a32.3584 32.3584 0 0 1 32.3584-32.3584h37.2736a32.3584 32.3584 0 0 1 32.3584 32.3584v37.2736a32.3584 32.3584 0 0 1-32.3584 32.3584z" fill="#D5F5FB" /><path d="M602.3168 778.3936c-14.1312 0-25.6-11.4688-25.6-25.6v-123.7504c0-7.3216-9.1648-15.4112-22.272-15.4112H472.3712c-13.1072 0-22.272 8.1408-22.272 15.4112v123.7504c0 14.1312-11.4688 25.6-25.6 25.6s-25.6-11.4688-25.6-25.6v-123.7504c0-36.7616 32.9728-66.6112 73.472-66.6112h82.0736c40.4992 0 73.472 29.9008 73.472 66.6112v123.7504c0 14.1312-11.4688 25.6-25.6 25.6z" fill="#474747" /><path d="M698.112 418.56l-122.7776-106.496c-2.7648-2.4064-6.8096-2.4064-9.6256-0.1024L392.9088 455.68c-5.376 4.4544-2.2016 13.1584 4.7616 13.1584h291.0208c20.3264-7.6288 27.5968-34.5088 9.4208-50.2784z" fill="#EAF5C5" /><path d="M504.6272 468.8384h184.064c20.3264-7.6288 27.5968-34.5088 9.4208-50.2784L626.9952 356.864a4.5824 4.5824 0 0 0-5.9904 0L501.6064 460.8c-3.1744 2.816-1.2288 8.0384 3.0208 8.0384z" fill="#D5F5FB" /></svg>